<mxfile host="app.diagrams.net" modified="2024-05-28T09:21:45.985Z" agent="Mozilla/5.0 (Windows NT 10.0; Win64; x64) AppleWebKit/537.36 (KHTML, like Gecko) Chrome/125.0.0.0 Safari/537.36 Edg/125.0.0.0" etag="Q4Y_kyQ9X8lu01_SoBQP" version="24.4.9" type="device">
  <diagram id="eIChM9RK6_92tz9HYdSi" name="Page-1">
    <mxGraphModel dx="794" dy="509" grid="1" gridSize="10" guides="1" tooltips="1" connect="1" arrows="1" fold="1" page="0" pageScale="1" pageWidth="827" pageHeight="1169" math="0" shadow="0">
      <root>
        <mxCell id="0" />
        <mxCell id="1" parent="0" />
        <mxCell id="_AeG8bafR6B2_kzeQ6Sn-1" value="Eleve" style="swimlane;fontStyle=1;align=center;verticalAlign=top;childLayout=stackLayout;horizontal=1;startSize=26;horizontalStack=0;resizeParent=1;resizeParentMax=0;resizeLast=0;collapsible=1;marginBottom=0;whiteSpace=wrap;html=1;" parent="1" vertex="1">
          <mxGeometry x="40" y="40" width="210" height="330" as="geometry" />
        </mxCell>
        <mxCell id="_AeG8bafR6B2_kzeQ6Sn-2" value="&lt;font&gt;+ nom : VARCHAR(50)&lt;/font&gt;&lt;div&gt;+ prénom : VARCHAR(50)&lt;/div&gt;&lt;div&gt;+ date de naissance : Date&lt;/div&gt;&lt;div&gt;+ lieu naissance : VARCHAR(50)&lt;/div&gt;&lt;div&gt;+ nom ancien établissement : VARCHAR(50)&lt;/div&gt;&lt;div&gt;+ ville ancien etablissement : VARCHAR(50)&lt;/div&gt;&lt;div&gt;+ matières : Matières [ ]&lt;/div&gt;&lt;div&gt;+ emploi du temp : emploi du temp&lt;/div&gt;" style="text;strokeColor=none;fillColor=none;align=left;verticalAlign=top;spacingLeft=4;spacingRight=4;overflow=hidden;rotatable=0;points=[[0,0.5],[1,0.5]];portConstraint=eastwest;whiteSpace=wrap;html=1;" parent="_AeG8bafR6B2_kzeQ6Sn-1" vertex="1">
          <mxGeometry y="26" width="210" height="164" as="geometry" />
        </mxCell>
        <mxCell id="_AeG8bafR6B2_kzeQ6Sn-3" value="" style="line;strokeWidth=1;fillColor=none;align=left;verticalAlign=middle;spacingTop=-1;spacingLeft=3;spacingRight=3;rotatable=0;labelPosition=right;points=[];portConstraint=eastwest;strokeColor=inherit;" parent="_AeG8bafR6B2_kzeQ6Sn-1" vertex="1">
          <mxGeometry y="190" width="210" height="8" as="geometry" />
        </mxCell>
        <mxCell id="_AeG8bafR6B2_kzeQ6Sn-4" value="&lt;font&gt;+ inscription_classe(type) : Classe&lt;/font&gt;&lt;div&gt;+ consulter moyenne(float)&amp;nbsp;: float&lt;/div&gt;&lt;div&gt;+ consulter emploi du temp()&amp;nbsp;:emploi&lt;/div&gt;&lt;div&gt;&lt;font&gt;du temps&lt;/font&gt;&lt;/div&gt;&lt;div&gt;&lt;span style=&quot;background-color: initial;&quot;&gt;+ consulterBulletin () : Doc1&lt;/span&gt;&lt;/div&gt;&lt;div&gt;&lt;span style=&quot;background-color: initial;&quot;&gt;+ correctionInfos()&lt;/span&gt;&lt;/div&gt;&lt;div&gt;&lt;span style=&quot;background-color: initial;&quot;&gt;+ abscences()&lt;/span&gt;&lt;/div&gt;" style="text;strokeColor=none;fillColor=none;align=left;verticalAlign=top;spacingLeft=4;spacingRight=4;overflow=hidden;rotatable=0;points=[[0,0.5],[1,0.5]];portConstraint=eastwest;whiteSpace=wrap;html=1;" parent="_AeG8bafR6B2_kzeQ6Sn-1" vertex="1">
          <mxGeometry y="198" width="210" height="132" as="geometry" />
        </mxCell>
        <mxCell id="_AeG8bafR6B2_kzeQ6Sn-5" value="Professeur" style="swimlane;fontStyle=1;align=center;verticalAlign=top;childLayout=stackLayout;horizontal=1;startSize=26;horizontalStack=0;resizeParent=1;resizeParentMax=0;resizeLast=0;collapsible=1;marginBottom=0;whiteSpace=wrap;html=1;" parent="1" vertex="1">
          <mxGeometry x="40" y="400" width="180" height="320" as="geometry" />
        </mxCell>
        <mxCell id="_AeG8bafR6B2_kzeQ6Sn-6" value="&lt;font&gt;+ nom : VARCHAR(50)&lt;/font&gt;&lt;div&gt;&lt;font&gt;+ prénom : VARCHAR(50)&lt;/font&gt;&lt;/div&gt;&lt;div&gt;&lt;span style=&quot;background-color: initial;&quot;&gt;+ date de naissance : date&lt;/span&gt;&lt;/div&gt;&lt;div&gt;+ lieu naissance : VARCHAR(50)&lt;/div&gt;&lt;div&gt;+ date diplome : Date&lt;/div&gt;&lt;div&gt;+ matières : Matières[ ]&lt;/div&gt;" style="text;strokeColor=none;fillColor=none;align=left;verticalAlign=top;spacingLeft=4;spacingRight=4;overflow=hidden;rotatable=0;points=[[0,0.5],[1,0.5]];portConstraint=eastwest;whiteSpace=wrap;html=1;" parent="_AeG8bafR6B2_kzeQ6Sn-5" vertex="1">
          <mxGeometry y="26" width="180" height="114" as="geometry" />
        </mxCell>
        <mxCell id="_AeG8bafR6B2_kzeQ6Sn-7" value="" style="line;strokeWidth=1;fillColor=none;align=left;verticalAlign=middle;spacingTop=-1;spacingLeft=3;spacingRight=3;rotatable=0;labelPosition=right;points=[];portConstraint=eastwest;strokeColor=inherit;" parent="_AeG8bafR6B2_kzeQ6Sn-5" vertex="1">
          <mxGeometry y="140" width="180" height="8" as="geometry" />
        </mxCell>
        <mxCell id="_AeG8bafR6B2_kzeQ6Sn-8" value="+ profil(Professeur): Doc4&lt;div&gt;+ modifProfil(Professeur):&lt;/div&gt;&lt;div&gt;+ Contacter()&lt;/div&gt;&lt;div&gt;+ EmploiDuTemp(): Emploi du temps&lt;/div&gt;&lt;div&gt;+ consulterEmploiTemp(): Emploi du temp&lt;/div&gt;&lt;div&gt;+ modifierEmploiTemp(): Emploi du temp()&lt;/div&gt;&lt;div&gt;+ supprimerEmploiTemp(): Emploi du temps&lt;/div&gt;" style="text;strokeColor=none;fillColor=none;align=left;verticalAlign=top;spacingLeft=4;spacingRight=4;overflow=hidden;rotatable=0;points=[[0,0.5],[1,0.5]];portConstraint=eastwest;whiteSpace=wrap;html=1;" parent="_AeG8bafR6B2_kzeQ6Sn-5" vertex="1">
          <mxGeometry y="148" width="180" height="172" as="geometry" />
        </mxCell>
        <mxCell id="_AeG8bafR6B2_kzeQ6Sn-9" value="Matieres" style="swimlane;fontStyle=1;align=center;verticalAlign=top;childLayout=stackLayout;horizontal=1;startSize=26;horizontalStack=0;resizeParent=1;resizeParentMax=0;resizeLast=0;collapsible=1;marginBottom=0;whiteSpace=wrap;html=1;" parent="1" vertex="1">
          <mxGeometry x="580" y="40" width="180" height="220" as="geometry" />
        </mxCell>
        <mxCell id="_AeG8bafR6B2_kzeQ6Sn-10" value="+ nom : VARCHAR(50)&lt;div&gt;+ statut: boolean&lt;/div&gt;&lt;div&gt;+ notes : float [ ]&lt;/div&gt;&lt;div&gt;+ moyenne: float&lt;/div&gt;" style="text;strokeColor=none;fillColor=none;align=left;verticalAlign=top;spacingLeft=4;spacingRight=4;overflow=hidden;rotatable=0;points=[[0,0.5],[1,0.5]];portConstraint=eastwest;whiteSpace=wrap;html=1;" parent="_AeG8bafR6B2_kzeQ6Sn-9" vertex="1">
          <mxGeometry y="26" width="180" height="84" as="geometry" />
        </mxCell>
        <mxCell id="_AeG8bafR6B2_kzeQ6Sn-11" value="" style="line;strokeWidth=1;fillColor=none;align=left;verticalAlign=middle;spacingTop=-1;spacingLeft=3;spacingRight=3;rotatable=0;labelPosition=right;points=[];portConstraint=eastwest;strokeColor=inherit;" parent="_AeG8bafR6B2_kzeQ6Sn-9" vertex="1">
          <mxGeometry y="110" width="180" height="8" as="geometry" />
        </mxCell>
        <mxCell id="_AeG8bafR6B2_kzeQ6Sn-12" value="+ creer(Matiere): matiere&lt;div&gt;+ Consulter():&lt;/div&gt;&lt;div&gt;+ modifier():&lt;/div&gt;&lt;div&gt;+ supprimer():&lt;/div&gt;&lt;div&gt;+ ListeProf():&lt;/div&gt;&lt;div&gt;+ ListeEleve/An():&lt;/div&gt;" style="text;strokeColor=none;fillColor=none;align=left;verticalAlign=top;spacingLeft=4;spacingRight=4;overflow=hidden;rotatable=0;points=[[0,0.5],[1,0.5]];portConstraint=eastwest;whiteSpace=wrap;html=1;" parent="_AeG8bafR6B2_kzeQ6Sn-9" vertex="1">
          <mxGeometry y="118" width="180" height="102" as="geometry" />
        </mxCell>
        <mxCell id="_AeG8bafR6B2_kzeQ6Sn-13" value="Classe" style="swimlane;fontStyle=1;align=center;verticalAlign=top;childLayout=stackLayout;horizontal=1;startSize=26;horizontalStack=0;resizeParent=1;resizeParentMax=0;resizeLast=0;collapsible=1;marginBottom=0;whiteSpace=wrap;html=1;" parent="1" vertex="1">
          <mxGeometry x="320" y="100" width="220" height="300" as="geometry" />
        </mxCell>
        <mxCell id="_AeG8bafR6B2_kzeQ6Sn-14" value="&lt;font&gt;+ nom : VARCHAR(50)&lt;/font&gt;&lt;div&gt;&lt;font&gt;+ Date de la session : Date&lt;/font&gt;&lt;/div&gt;&lt;div&gt;+ date rentrée : Date&lt;/div&gt;&lt;div&gt;&lt;span style=&quot;background-color: initial;&quot;&gt;+ heure rentrée : Date&lt;/span&gt;&lt;/div&gt;&lt;div&gt;+ nombre inscrits&amp;nbsp;: Integer [int] [eleve]&lt;/div&gt;&lt;div&gt;+ professeur&amp;nbsp; principal : Professeur&lt;/div&gt;&lt;div&gt;+ emploi du temps : Emploi du temps&lt;/div&gt;" style="text;strokeColor=none;fillColor=none;align=left;verticalAlign=top;spacingLeft=4;spacingRight=4;overflow=hidden;rotatable=0;points=[[0,0.5],[1,0.5]];portConstraint=eastwest;whiteSpace=wrap;html=1;" parent="_AeG8bafR6B2_kzeQ6Sn-13" vertex="1">
          <mxGeometry y="26" width="220" height="134" as="geometry" />
        </mxCell>
        <mxCell id="_AeG8bafR6B2_kzeQ6Sn-15" value="" style="line;strokeWidth=1;fillColor=none;align=left;verticalAlign=middle;spacingTop=-1;spacingLeft=3;spacingRight=3;rotatable=0;labelPosition=right;points=[];portConstraint=eastwest;strokeColor=inherit;" parent="_AeG8bafR6B2_kzeQ6Sn-13" vertex="1">
          <mxGeometry y="160" width="220" height="8" as="geometry" />
        </mxCell>
        <mxCell id="_AeG8bafR6B2_kzeQ6Sn-16" value="+ Appel() : Eleve [ ]&lt;div&gt;+ Liaison(): Doc2&amp;nbsp;&lt;/div&gt;&lt;div&gt;+ documentsAnnexes(): Doc3&lt;/div&gt;&lt;div&gt;+ creer()&lt;/div&gt;&lt;div&gt;+ consulterActivite():&lt;/div&gt;&lt;div&gt;+ modifierActivite()&lt;/div&gt;&lt;div&gt;+ supprimerActivite()&lt;/div&gt;&lt;div&gt;&lt;br&gt;&lt;/div&gt;" style="text;strokeColor=none;fillColor=none;align=left;verticalAlign=top;spacingLeft=4;spacingRight=4;overflow=hidden;rotatable=0;points=[[0,0.5],[1,0.5]];portConstraint=eastwest;whiteSpace=wrap;html=1;" parent="_AeG8bafR6B2_kzeQ6Sn-13" vertex="1">
          <mxGeometry y="168" width="220" height="132" as="geometry" />
        </mxCell>
        <mxCell id="_AeG8bafR6B2_kzeQ6Sn-17" value="Emploi du temps" style="swimlane;fontStyle=1;align=center;verticalAlign=top;childLayout=stackLayout;horizontal=1;startSize=26;horizontalStack=0;resizeParent=1;resizeParentMax=0;resizeLast=0;collapsible=1;marginBottom=0;whiteSpace=wrap;html=1;" parent="1" vertex="1">
          <mxGeometry x="320" y="540" width="200" height="160" as="geometry" />
        </mxCell>
        <mxCell id="_AeG8bafR6B2_kzeQ6Sn-18" value="+ Cours: Cours [ ]" style="text;strokeColor=none;fillColor=none;align=left;verticalAlign=top;spacingLeft=4;spacingRight=4;overflow=hidden;rotatable=0;points=[[0,0.5],[1,0.5]];portConstraint=eastwest;whiteSpace=wrap;html=1;" parent="_AeG8bafR6B2_kzeQ6Sn-17" vertex="1">
          <mxGeometry y="26" width="200" height="54" as="geometry" />
        </mxCell>
        <mxCell id="_AeG8bafR6B2_kzeQ6Sn-19" value="" style="line;strokeWidth=1;fillColor=none;align=left;verticalAlign=middle;spacingTop=-1;spacingLeft=3;spacingRight=3;rotatable=0;labelPosition=right;points=[];portConstraint=eastwest;strokeColor=inherit;" parent="_AeG8bafR6B2_kzeQ6Sn-17" vertex="1">
          <mxGeometry y="80" width="200" height="8" as="geometry" />
        </mxCell>
        <mxCell id="_AeG8bafR6B2_kzeQ6Sn-20" value="+ consulter(type): type&lt;div&gt;+ modifier()&lt;/div&gt;&lt;div&gt;+ créer()&lt;/div&gt;&lt;div&gt;+ supprimer()&lt;/div&gt;" style="text;strokeColor=none;fillColor=none;align=left;verticalAlign=top;spacingLeft=4;spacingRight=4;overflow=hidden;rotatable=0;points=[[0,0.5],[1,0.5]];portConstraint=eastwest;whiteSpace=wrap;html=1;" parent="_AeG8bafR6B2_kzeQ6Sn-17" vertex="1">
          <mxGeometry y="88" width="200" height="72" as="geometry" />
        </mxCell>
        <mxCell id="_AeG8bafR6B2_kzeQ6Sn-21" value="Cours" style="swimlane;fontStyle=1;align=center;verticalAlign=top;childLayout=stackLayout;horizontal=1;startSize=26;horizontalStack=0;resizeParent=1;resizeParentMax=0;resizeLast=0;collapsible=1;marginBottom=0;whiteSpace=wrap;html=1;" parent="1" vertex="1">
          <mxGeometry x="580" y="280" width="180" height="230" as="geometry" />
        </mxCell>
        <mxCell id="_AeG8bafR6B2_kzeQ6Sn-22" value="&lt;font&gt;+ jour semaine&amp;nbsp;: VARCHAR(10)&lt;/font&gt;&lt;div&gt;+ date : Date&lt;/div&gt;&lt;div&gt;+ heure debut : VARCHAR(50)&lt;/div&gt;&lt;div&gt;+ heure fin : VARCHAR(50)&lt;/div&gt;&lt;div&gt;+ salle&amp;nbsp;: VARCHAR(50)&lt;/div&gt;&lt;div&gt;+ matière : matière&lt;/div&gt;" style="text;strokeColor=none;fillColor=none;align=left;verticalAlign=top;spacingLeft=4;spacingRight=4;overflow=hidden;rotatable=0;points=[[0,0.5],[1,0.5]];portConstraint=eastwest;whiteSpace=wrap;html=1;" parent="_AeG8bafR6B2_kzeQ6Sn-21" vertex="1">
          <mxGeometry y="26" width="180" height="94" as="geometry" />
        </mxCell>
        <mxCell id="_AeG8bafR6B2_kzeQ6Sn-23" value="" style="line;strokeWidth=1;fillColor=none;align=left;verticalAlign=middle;spacingTop=-1;spacingLeft=3;spacingRight=3;rotatable=0;labelPosition=right;points=[];portConstraint=eastwest;strokeColor=inherit;" parent="_AeG8bafR6B2_kzeQ6Sn-21" vertex="1">
          <mxGeometry y="120" width="180" height="8" as="geometry" />
        </mxCell>
        <mxCell id="_AeG8bafR6B2_kzeQ6Sn-24" value="+ creer(type):&amp;nbsp;&lt;div&gt;+ rechercher():&lt;/div&gt;&lt;div&gt;+ modifier():&lt;/div&gt;&lt;div&gt;+ supprimer():&lt;/div&gt;&lt;div&gt;&lt;br&gt;&lt;/div&gt;&lt;div&gt;&lt;br&gt;&lt;/div&gt;" style="text;strokeColor=none;fillColor=none;align=left;verticalAlign=top;spacingLeft=4;spacingRight=4;overflow=hidden;rotatable=0;points=[[0,0.5],[1,0.5]];portConstraint=eastwest;whiteSpace=wrap;html=1;" parent="_AeG8bafR6B2_kzeQ6Sn-21" vertex="1">
          <mxGeometry y="128" width="180" height="102" as="geometry" />
        </mxCell>
        <mxCell id="_AeG8bafR6B2_kzeQ6Sn-25" value="Conseil de classe" style="swimlane;fontStyle=1;align=center;verticalAlign=top;childLayout=stackLayout;horizontal=1;startSize=26;horizontalStack=0;resizeParent=1;resizeParentMax=0;resizeLast=0;collapsible=1;marginBottom=0;whiteSpace=wrap;html=1;" parent="1" vertex="1">
          <mxGeometry x="40" y="740" width="160" height="190" as="geometry" />
        </mxCell>
        <mxCell id="_AeG8bafR6B2_kzeQ6Sn-26" value="+ nom: VARCHAR(50)&lt;div&gt;+ date : Date&lt;/div&gt;&lt;div&gt;&lt;span style=&quot;background-color: initial;&quot;&gt;+ bulletin : Bulletin [ ]&lt;/span&gt;&lt;/div&gt;" style="text;strokeColor=none;fillColor=none;align=left;verticalAlign=top;spacingLeft=4;spacingRight=4;overflow=hidden;rotatable=0;points=[[0,0.5],[1,0.5]];portConstraint=eastwest;whiteSpace=wrap;html=1;" parent="_AeG8bafR6B2_kzeQ6Sn-25" vertex="1">
          <mxGeometry y="26" width="160" height="74" as="geometry" />
        </mxCell>
        <mxCell id="_AeG8bafR6B2_kzeQ6Sn-27" value="" style="line;strokeWidth=1;fillColor=none;align=left;verticalAlign=middle;spacingTop=-1;spacingLeft=3;spacingRight=3;rotatable=0;labelPosition=right;points=[];portConstraint=eastwest;strokeColor=inherit;" parent="_AeG8bafR6B2_kzeQ6Sn-25" vertex="1">
          <mxGeometry y="100" width="160" height="8" as="geometry" />
        </mxCell>
        <mxCell id="_AeG8bafR6B2_kzeQ6Sn-28" value="+ consulter():&lt;div&gt;+ creerRapport():&lt;/div&gt;&lt;div&gt;+ modifierRapport():&lt;/div&gt;&lt;div&gt;+ supprimerRapport():&lt;/div&gt;&lt;div&gt;+ archiver():&amp;nbsp;&lt;/div&gt;" style="text;strokeColor=none;fillColor=none;align=left;verticalAlign=top;spacingLeft=4;spacingRight=4;overflow=hidden;rotatable=0;points=[[0,0.5],[1,0.5]];portConstraint=eastwest;whiteSpace=wrap;html=1;" parent="_AeG8bafR6B2_kzeQ6Sn-25" vertex="1">
          <mxGeometry y="108" width="160" height="82" as="geometry" />
        </mxCell>
        <mxCell id="_AeG8bafR6B2_kzeQ6Sn-29" value="Bulletin" style="swimlane;fontStyle=1;align=center;verticalAlign=top;childLayout=stackLayout;horizontal=1;startSize=26;horizontalStack=0;resizeParent=1;resizeParentMax=0;resizeLast=0;collapsible=1;marginBottom=0;whiteSpace=wrap;html=1;" parent="1" vertex="1">
          <mxGeometry x="580" y="550" width="200" height="210" as="geometry" />
        </mxCell>
        <mxCell id="_AeG8bafR6B2_kzeQ6Sn-30" value="+ eleve: Eleve&lt;div&gt;+ appreciation generale : VARCHAR(50)&lt;/div&gt;&lt;div&gt;+ moyenne generale : float&lt;/div&gt;&lt;div&gt;+ appreciation professeur : VARCHAR(50)&lt;/div&gt;" style="text;strokeColor=none;fillColor=none;align=left;verticalAlign=top;spacingLeft=4;spacingRight=4;overflow=hidden;rotatable=0;points=[[0,0.5],[1,0.5]];portConstraint=eastwest;whiteSpace=wrap;html=1;" parent="_AeG8bafR6B2_kzeQ6Sn-29" vertex="1">
          <mxGeometry y="26" width="200" height="104" as="geometry" />
        </mxCell>
        <mxCell id="_AeG8bafR6B2_kzeQ6Sn-31" value="" style="line;strokeWidth=1;fillColor=none;align=left;verticalAlign=middle;spacingTop=-1;spacingLeft=3;spacingRight=3;rotatable=0;labelPosition=right;points=[];portConstraint=eastwest;strokeColor=inherit;" parent="_AeG8bafR6B2_kzeQ6Sn-29" vertex="1">
          <mxGeometry y="130" width="200" height="8" as="geometry" />
        </mxCell>
        <mxCell id="_AeG8bafR6B2_kzeQ6Sn-32" value="+ consulter():&amp;nbsp;&lt;div&gt;+ editer():&lt;/div&gt;&lt;div&gt;+ modifier():&lt;/div&gt;&lt;div&gt;+ sauvegarder():&lt;/div&gt;" style="text;strokeColor=none;fillColor=none;align=left;verticalAlign=top;spacingLeft=4;spacingRight=4;overflow=hidden;rotatable=0;points=[[0,0.5],[1,0.5]];portConstraint=eastwest;whiteSpace=wrap;html=1;" parent="_AeG8bafR6B2_kzeQ6Sn-29" vertex="1">
          <mxGeometry y="138" width="200" height="72" as="geometry" />
        </mxCell>
        <mxCell id="vOwLTP-JXdMApnWwDP6M-1" value="Diagramme de classe (part1)" style="text;align=center;fontStyle=1;verticalAlign=middle;spacingLeft=3;spacingRight=3;strokeColor=none;rotatable=0;points=[[0,0.5],[1,0.5]];portConstraint=eastwest;html=1;" parent="1" vertex="1">
          <mxGeometry x="370" y="40" width="100" height="26" as="geometry" />
        </mxCell>
        <mxCell id="_AeG8bafR6B2_kzeQ6Sn-35" value="La classe eleve possede un attribut matieres, pour les matieres." style="shape=note;whiteSpace=wrap;html=1;backgroundOutline=1;darkOpacity=0.05;" parent="1" vertex="1">
          <mxGeometry x="320" y="420" width="220" height="100" as="geometry" />
        </mxCell>
        <mxCell id="yL64bSLMt4OYLZEf7VfX-1" value="&lt;h1 style=&quot;margin-top: 0px;&quot;&gt;&lt;font style=&quot;font-size: 12px;&quot;&gt;Annexe:&lt;/font&gt;&lt;/h1&gt;&lt;div&gt;&lt;font style=&quot;font-size: 12px;&quot;&gt;Doc1: bulletin papier/informatique&lt;/font&gt;&lt;/div&gt;&lt;div&gt;&lt;font style=&quot;font-size: 12px;&quot;&gt;Doc2: Fiches de liaison Papier/informatique&lt;/font&gt;&lt;/div&gt;&lt;div&gt;&lt;font style=&quot;font-size: 12px;&quot;&gt;Doc3: Documents supplémentaires papier/informatiques&lt;/font&gt;&lt;span style=&quot;background-color: initial;&quot;&gt;&amp;nbsp;&lt;/span&gt;&lt;/div&gt;" style="text;html=1;whiteSpace=wrap;overflow=hidden;rounded=0;" parent="1" vertex="1">
          <mxGeometry x="260" y="750" width="280" height="120" as="geometry" />
        </mxCell>
      </root>
    </mxGraphModel>
  </diagram>
</mxfile>
